<svg width="45" height="44" viewBox="0 0 45 44" fill="none" xmlns="http://www.w3.org/2000/svg">
<rect x="1" y="0.5" width="43" height="43" rx="21.5" stroke="#CCCFD5"/>
<path d="M32.5 14C30.7533 14 29.34 15.3467 29.1933 17.0667C26.6867 16.4 25.4067 14.6667 22.5 14.6667C19.58 14.6667 18.3133 16.4 15.8067 17.0667C15.66 15.36 14.2467 14 12.5 14C10.66 14 9.16667 15.4933 9.16667 17.3333V18C9.16667 26 13.9667 28.4133 17.86 28.64C19.2067 29.4933 20.7933 30 22.5 30C24.2067 30 25.7933 29.4933 27.14 28.64C31.0333 28.4133 35.8333 26 35.8333 18V17.3333C35.8333 15.4933 34.34 14 32.5 14ZM11.1667 18V17.3333C11.1667 16.6 11.7667 16 12.5 16C13.2333 16 13.8333 16.6 13.8333 17.3333V21.3333C13.8333 23.04 14.34 24.6267 15.18 25.9733C13.1533 25.0267 11.1667 22.8667 11.1667 18ZM33.8333 18C33.8333 22.8667 31.8467 25.0267 29.82 25.9733C30.6733 24.6267 31.1667 23.04 31.1667 21.3333V17.3333C31.1667 16.6 31.7667 16 32.5 16C33.2333 16 33.8333 16.6 33.8333 17.3333V18ZM20.7533 19.9733C20.1667 20.32 19.4733 20.72 18.5 20.9867V19.6C19.14 19.3733 19.62 19.0933 20.0733 18.8267C20.7933 18.4 21.4733 18 22.5 18C23.5267 18 24.1933 18.4 24.9 18.8267C25.3533 19.0933 25.8467 19.3867 26.5 19.6133V21C25.5 20.72 24.82 20.32 24.22 19.96C23.6067 19.6 23.1533 19.3333 22.5 19.3333C21.8467 19.3333 21.38 19.6 20.7533 19.9733Z" fill="#F8A65D"/>
</svg>
