<svg width="390" height="124" viewBox="0 0 390 124" fill="none" xmlns="http://www.w3.org/2000/svg">
<rect x="0.5" y="23.8682" width="389" height="99" rx="11.5" fill="white" stroke="#CCCFD5"/>
<path d="M184.247 53.6162H205.751V57.4082H184.247V53.6162ZM184.247 64.9922H205.751V68.7842H184.247V64.9922Z" fill="#F8A65D"/>
<path d="M253.816 69.4642V77.0002H227.656V71.0482L240.232 59.2882C241.448 58.1362 242.264 57.1602 242.68 56.3602C243.096 55.5282 243.304 54.6962 243.304 53.8642C243.304 52.7762 242.936 51.9282 242.2 51.3202C241.464 50.7122 240.392 50.4082 238.984 50.4082C237.736 50.4082 236.584 50.6962 235.528 51.2722C234.504 51.8162 233.656 52.6162 232.984 53.6722L225.928 49.7362C227.24 47.5602 229.08 45.8482 231.448 44.6002C233.816 43.3522 236.616 42.7282 239.848 42.7282C242.408 42.7282 244.664 43.1442 246.616 43.9762C248.6 44.8082 250.136 46.0082 251.224 47.5762C252.344 49.1122 252.904 50.9042 252.904 52.9522C252.904 54.7762 252.504 56.5042 251.704 58.1362C250.936 59.7362 249.432 61.5602 247.192 63.6082L240.856 69.4642H253.816ZM282.6 69.4642V77.0002H256.44V71.0482L269.016 59.2882C270.232 58.1362 271.048 57.1602 271.464 56.3602C271.88 55.5282 272.088 54.6962 272.088 53.8642C272.088 52.7762 271.72 51.9282 270.984 51.3202C270.248 50.7122 269.176 50.4082 267.768 50.4082C266.52 50.4082 265.368 50.6962 264.312 51.2722C263.288 51.8162 262.44 52.6162 261.768 53.6722L254.712 49.7362C256.024 47.5602 257.864 45.8482 260.232 44.6002C262.6 43.3522 265.4 42.7282 268.632 42.7282C271.192 42.7282 273.448 43.1442 275.4 43.9762C277.384 44.8082 278.92 46.0082 280.008 47.5762C281.128 49.1122 281.688 50.9042 281.688 52.9522C281.688 54.7762 281.288 56.5042 280.488 58.1362C279.72 59.7362 278.216 61.5602 275.976 63.6082L269.64 69.4642H282.6Z" fill="#F8A65D"/>
<path d="M234.08 89.6402V96.0002H232.988V95.0162C232.772 95.3762 232.484 95.6442 232.124 95.8202C231.772 95.9882 231.392 96.0722 230.984 96.0722C230.216 96.0722 229.636 95.8282 229.244 95.3402V98.3282H228.092V89.6402H229.244V93.1682C229.244 93.7842 229.392 94.2522 229.688 94.5722C229.992 94.8842 230.416 95.0402 230.96 95.0402C231.568 95.0402 232.048 94.8562 232.4 94.4882C232.752 94.1202 232.928 93.6002 232.928 92.9282V89.6402H234.08ZM242.356 89.6402V95.1362C242.356 96.2482 242.08 97.0682 241.528 97.5962C240.976 98.1322 240.152 98.4002 239.056 98.4002C238.456 98.4002 237.884 98.3162 237.34 98.1482C236.796 97.9882 236.356 97.7562 236.02 97.4522L236.572 96.5642C236.868 96.8202 237.232 97.0202 237.664 97.1642C238.104 97.3162 238.556 97.3922 239.02 97.3922C239.764 97.3922 240.312 97.2162 240.664 96.8642C241.024 96.5122 241.204 95.9762 241.204 95.2562V94.7522C240.932 95.0802 240.596 95.3282 240.196 95.4962C239.804 95.6562 239.376 95.7362 238.912 95.7362C238.304 95.7362 237.752 95.6082 237.256 95.3522C236.768 95.0882 236.384 94.7242 236.104 94.2602C235.824 93.7882 235.684 93.2522 235.684 92.6522C235.684 92.0522 235.824 91.5202 236.104 91.0562C236.384 90.5842 236.768 90.2202 237.256 89.9642C237.752 89.7082 238.304 89.5802 238.912 89.5802C239.392 89.5802 239.836 89.6682 240.244 89.8442C240.66 90.0202 241 90.2802 241.264 90.6242V89.6402H242.356ZM239.044 94.7282C239.46 94.7282 239.832 94.6402 240.16 94.4642C240.496 94.2882 240.756 94.0442 240.94 93.7322C241.132 93.4122 241.228 93.0522 241.228 92.6522C241.228 92.0362 241.024 91.5402 240.616 91.1642C240.208 90.7802 239.684 90.5882 239.044 90.5882C238.396 90.5882 237.868 90.7802 237.46 91.1642C237.052 91.5402 236.848 92.0362 236.848 92.6522C236.848 93.0522 236.94 93.4122 237.124 93.7322C237.316 94.0442 237.576 94.2882 237.904 94.4642C238.24 94.6402 238.62 94.7282 239.044 94.7282ZM247.089 85.8962H248.133L244.173 97.2002H243.129L247.089 85.8962ZM255.923 89.5802C256.723 89.5802 257.355 89.8122 257.819 90.2762C258.291 90.7402 258.527 91.4282 258.527 92.3402V96.0002H257.375V92.4722C257.375 91.8562 257.231 91.3922 256.943 91.0802C256.663 90.7682 256.259 90.6122 255.731 90.6122C255.147 90.6122 254.683 90.7962 254.339 91.1642C253.995 91.5242 253.823 92.0442 253.823 92.7242V96.0002H252.671V92.4722C252.671 91.8562 252.527 91.3922 252.239 91.0802C251.959 90.7682 251.555 90.6122 251.027 90.6122C250.443 90.6122 249.979 90.7962 249.635 91.1642C249.291 91.5242 249.119 92.0442 249.119 92.7242V96.0002H247.967V89.6402H249.071V90.5882C249.303 90.2602 249.607 90.0122 249.983 89.8442C250.359 89.6682 250.787 89.5802 251.267 89.5802C251.763 89.5802 252.203 89.6802 252.587 89.8802C252.971 90.0802 253.267 90.3722 253.475 90.7562C253.715 90.3882 254.047 90.1002 254.471 89.8922C254.903 89.6842 255.387 89.5802 255.923 89.5802ZM263.347 91.1282C264.171 91.2082 264.799 91.4642 265.231 91.8962C265.663 92.3202 265.879 92.8642 265.879 93.5282C265.879 94.0082 265.759 94.4442 265.519 94.8362C265.279 95.2202 264.919 95.5282 264.439 95.7602C263.967 95.9842 263.387 96.0962 262.699 96.0962C262.099 96.0962 261.523 96.0082 260.971 95.8322C260.419 95.6482 259.967 95.3962 259.615 95.0762L260.167 94.1282C260.455 94.4002 260.823 94.6202 261.271 94.7882C261.719 94.9482 262.195 95.0282 262.699 95.0282C263.323 95.0282 263.807 94.8962 264.151 94.6322C264.503 94.3682 264.679 94.0042 264.679 93.5402C264.679 93.0762 264.507 92.7162 264.163 92.4602C263.819 92.2042 263.299 92.0762 262.603 92.0762H261.931V91.2362L264.043 88.6442H259.999V87.6002H265.543V88.4162L263.347 91.1282ZM274.181 87.6002C275.269 87.6002 276.125 87.8602 276.749 88.3802C277.373 88.9002 277.685 89.6162 277.685 90.5282C277.685 91.4402 277.373 92.1562 276.749 92.6762C276.125 93.1962 275.269 93.4562 274.181 93.4562H272.105V96.0002H270.905V87.6002H274.181ZM274.145 92.4122C274.905 92.4122 275.485 92.2522 275.885 91.9322C276.285 91.6042 276.485 91.1362 276.485 90.5282C276.485 89.9202 276.285 89.4562 275.885 89.1362C275.485 88.8082 274.905 88.6442 274.145 88.6442H272.105V92.4122H274.145ZM287.236 96.0002L287.224 89.8802L284.188 94.9802H283.636L280.6 89.9162V96.0002H279.448V87.6002H280.432L283.936 93.5042L287.392 87.6002H288.376L288.388 96.0002H287.236ZM296.128 94.9562V96.0002H290.092V95.1842L293.512 91.8842C293.928 91.4842 294.208 91.1402 294.352 90.8522C294.496 90.5562 294.568 90.2602 294.568 89.9642C294.568 89.5242 294.412 89.1842 294.1 88.9442C293.796 88.6962 293.356 88.5722 292.78 88.5722C291.852 88.5722 291.136 88.8762 290.632 89.4842L289.816 88.7762C290.144 88.3762 290.572 88.0642 291.1 87.8402C291.636 87.6162 292.232 87.5042 292.888 87.5042C293.768 87.5042 294.468 87.7162 294.988 88.1402C295.508 88.5562 295.768 89.1242 295.768 89.8442C295.768 90.2922 295.672 90.7162 295.48 91.1162C295.288 91.5162 294.924 91.9722 294.388 92.4842L291.82 94.9562H296.128ZM298.024 96.0722C297.8 96.0722 297.608 95.9962 297.448 95.8442C297.288 95.6842 297.208 95.4842 297.208 95.2442C297.208 95.0122 297.288 94.8202 297.448 94.6682C297.608 94.5082 297.8 94.4282 298.024 94.4282C298.248 94.4282 298.436 94.5042 298.588 94.6562C298.74 94.8082 298.816 95.0042 298.816 95.2442C298.816 95.4842 298.736 95.6842 298.576 95.8442C298.424 95.9962 298.24 96.0722 298.024 96.0722ZM302.351 90.9482C303.551 90.9482 304.431 91.1762 304.991 91.6322C305.559 92.0802 305.843 92.6962 305.843 93.4802C305.843 93.9762 305.723 94.4242 305.483 94.8242C305.251 95.2162 304.895 95.5282 304.415 95.7602C303.943 95.9842 303.359 96.0962 302.663 96.0962C302.071 96.0962 301.499 96.0082 300.947 95.8322C300.395 95.6482 299.939 95.3962 299.579 95.0762L300.131 94.1282C300.419 94.4002 300.787 94.6202 301.235 94.7882C301.683 94.9482 302.155 95.0282 302.651 95.0282C303.283 95.0282 303.771 94.8962 304.115 94.6322C304.467 94.3602 304.643 93.9922 304.643 93.5282C304.643 93.0242 304.451 92.6442 304.067 92.3882C303.683 92.1242 303.027 91.9922 302.099 91.9922H300.191L300.635 87.6002H305.375V88.6442H301.643L301.415 90.9482H302.351Z" fill="#44464A"/>
<path d="M128.659 89.5802C129.275 89.5802 129.827 89.7162 130.315 89.9882C130.803 90.2602 131.183 90.6402 131.455 91.1282C131.735 91.6162 131.875 92.1802 131.875 92.8202C131.875 93.4602 131.735 94.0282 131.455 94.5242C131.183 95.0122 130.803 95.3922 130.315 95.6642C129.827 95.9362 129.275 96.0722 128.659 96.0722C128.203 96.0722 127.783 95.9842 127.399 95.8082C127.023 95.6322 126.703 95.3762 126.439 95.0402V98.3282H125.287V89.6402H126.391V90.6482C126.647 90.2962 126.971 90.0322 127.363 89.8562C127.755 89.6722 128.187 89.5802 128.659 89.5802ZM128.563 95.0642C128.971 95.0642 129.335 94.9722 129.655 94.7882C129.983 94.5962 130.239 94.3322 130.423 93.9962C130.615 93.6522 130.711 93.2602 130.711 92.8202C130.711 92.3802 130.615 91.9922 130.423 91.6562C130.239 91.3122 129.983 91.0482 129.655 90.8642C129.335 90.6802 128.971 90.5882 128.563 90.5882C128.163 90.5882 127.799 90.6842 127.471 90.8762C127.151 91.0602 126.895 91.3202 126.703 91.6562C126.519 91.9922 126.427 92.3802 126.427 92.8202C126.427 93.2602 126.519 93.6522 126.703 93.9962C126.887 94.3322 127.143 94.5962 127.471 94.7882C127.799 94.9722 128.163 95.0642 128.563 95.0642ZM139.215 92.8562C139.215 92.9442 139.207 93.0602 139.191 93.2042H134.031C134.103 93.7642 134.347 94.2162 134.763 94.5602C135.187 94.8962 135.711 95.0642 136.335 95.0642C137.095 95.0642 137.707 94.8082 138.171 94.2962L138.807 95.0402C138.519 95.3762 138.159 95.6322 137.727 95.8082C137.303 95.9842 136.827 96.0722 136.299 96.0722C135.627 96.0722 135.031 95.9362 134.511 95.6642C133.991 95.3842 133.587 94.9962 133.299 94.5002C133.019 94.0042 132.879 93.4442 132.879 92.8202C132.879 92.2042 133.015 91.6482 133.287 91.1522C133.567 90.6562 133.947 90.2722 134.427 90.0002C134.915 89.7202 135.463 89.5802 136.071 89.5802C136.679 89.5802 137.219 89.7202 137.691 90.0002C138.171 90.2722 138.543 90.6562 138.807 91.1522C139.079 91.6482 139.215 92.2162 139.215 92.8562ZM136.071 90.5522C135.519 90.5522 135.055 90.7202 134.679 91.0562C134.311 91.3922 134.095 91.8322 134.031 92.3762H138.111C138.047 91.8402 137.827 91.4042 137.451 91.0682C137.083 90.7242 136.623 90.5522 136.071 90.5522ZM141.919 90.7082C142.119 90.3402 142.415 90.0602 142.807 89.8682C143.199 89.6762 143.675 89.5802 144.235 89.5802V90.6962C144.171 90.6882 144.083 90.6842 143.971 90.6842C143.347 90.6842 142.855 90.8722 142.495 91.2482C142.143 91.6162 141.967 92.1442 141.967 92.8322V96.0002H140.815V89.6402H141.919V90.7082ZM154.959 87.0962V96.0002H153.855V94.9922C153.599 95.3442 153.275 95.6122 152.883 95.7962C152.491 95.9802 152.059 96.0722 151.587 96.0722C150.971 96.0722 150.419 95.9362 149.931 95.6642C149.443 95.3922 149.059 95.0122 148.779 94.5242C148.507 94.0282 148.371 93.4602 148.371 92.8202C148.371 92.1802 148.507 91.6162 148.779 91.1282C149.059 90.6402 149.443 90.2602 149.931 89.9882C150.419 89.7162 150.971 89.5802 151.587 89.5802C152.043 89.5802 152.463 89.6682 152.847 89.8442C153.231 90.0122 153.551 90.2642 153.807 90.6002V87.0962H154.959ZM151.683 95.0642C152.083 95.0642 152.447 94.9722 152.775 94.7882C153.103 94.5962 153.359 94.3322 153.543 93.9962C153.727 93.6522 153.819 93.2602 153.819 92.8202C153.819 92.3802 153.727 91.9922 153.543 91.6562C153.359 91.3122 153.103 91.0482 152.775 90.8642C152.447 90.6802 152.083 90.5882 151.683 90.5882C151.275 90.5882 150.907 90.6802 150.579 90.8642C150.259 91.0482 150.003 91.3122 149.811 91.6562C149.627 91.9922 149.535 92.3802 149.535 92.8202C149.535 93.2602 149.627 93.6522 149.811 93.9962C150.003 94.3322 150.259 94.5962 150.579 94.7882C150.907 94.9722 151.275 95.0642 151.683 95.0642ZM159.455 89.5802C160.335 89.5802 161.007 89.7962 161.471 90.2282C161.943 90.6602 162.179 91.3042 162.179 92.1602V96.0002H161.087V95.1602C160.895 95.4562 160.619 95.6842 160.259 95.8442C159.907 95.9962 159.487 96.0722 158.999 96.0722C158.287 96.0722 157.715 95.9002 157.283 95.5562C156.859 95.2122 156.647 94.7602 156.647 94.2002C156.647 93.6402 156.851 93.1922 157.259 92.8562C157.667 92.5122 158.315 92.3402 159.203 92.3402H161.027V92.1122C161.027 91.6162 160.883 91.2362 160.595 90.9722C160.307 90.7082 159.883 90.5762 159.323 90.5762C158.947 90.5762 158.579 90.6402 158.219 90.7682C157.859 90.8882 157.555 91.0522 157.307 91.2602L156.827 90.3962C157.155 90.1322 157.547 89.9322 158.003 89.7962C158.459 89.6522 158.943 89.5802 159.455 89.5802ZM159.191 95.1842C159.631 95.1842 160.011 95.0882 160.331 94.8962C160.651 94.6962 160.883 94.4162 161.027 94.0562V93.1682H159.251C158.275 93.1682 157.787 93.4962 157.787 94.1522C157.787 94.4722 157.911 94.7242 158.159 94.9082C158.407 95.0922 158.751 95.1842 159.191 95.1842ZM169.822 89.6402L166.738 96.6362C166.466 97.2842 166.146 97.7402 165.778 98.0042C165.418 98.2682 164.982 98.4002 164.47 98.4002C164.158 98.4002 163.854 98.3482 163.558 98.2442C163.27 98.1482 163.03 98.0042 162.838 97.8122L163.33 96.9482C163.658 97.2602 164.038 97.4162 164.47 97.4162C164.75 97.4162 164.982 97.3402 165.166 97.1882C165.358 97.0442 165.53 96.7922 165.682 96.4322L165.886 95.9882L163.078 89.6402H164.278L166.498 94.7282L168.694 89.6402H169.822Z" fill="#44464A"/>
<rect x="91.4854" y="90.6863" width="72.75" height="12" transform="rotate(-45 91.4854 90.6863)" fill="#F7F0DF"/>
<rect x="83" y="99.1716" width="36.75" height="12" transform="rotate(-45 83 99.1716)" fill="#F8A65D"/>
<rect x="107.396" y="74.7766" width="4.5" height="11.9998" transform="rotate(-45 107.396 74.7766)" fill="#E5D98D"/>
<rect opacity="0.0750679" x="87.2427" y="103.414" width="84.75" height="6" transform="rotate(-45 87.2427 103.414)" fill="#44464A"/>
<rect x="145.048" y="37.123" width="2.99995" height="11.9998" transform="rotate(-45 145.048 37.123)" fill="#FF5139"/>
<rect x="142.927" y="39.2441" width="2.99995" height="2.99995" transform="rotate(-45 142.927 39.2441)" fill="#44464A"/>
<rect x="140.806" y="41.3655" width="2.99995" height="2.99995" transform="rotate(-45 140.806 41.3655)" fill="#777D89"/>
<rect x="138.685" y="43.4868" width="2.99995" height="2.99995" transform="rotate(-45 138.685 43.4868)" fill="#44464A"/>
<rect x="147.17" y="43.4868" width="2.99995" height="2.99995" transform="rotate(-45 147.17 43.4868)" fill="#44464A"/>
<rect x="145.048" y="45.6082" width="2.99995" height="2.99995" transform="rotate(-45 145.048 45.6082)" fill="#777D89"/>
<rect x="145.048" y="41.3655" width="2.99995" height="2.99995" transform="rotate(-45 145.048 41.3655)" fill="#777D89"/>
<rect x="142.927" y="43.4868" width="2.99995" height="2.99995" transform="rotate(-45 142.927 43.4868)" fill="#44464A"/>
<rect x="140.806" y="45.6082" width="2.99995" height="2.99995" transform="rotate(-45 140.806 45.6082)" fill="#777D89"/>
<rect x="149.291" y="45.6082" width="2.99995" height="2.99995" transform="rotate(-45 149.291 45.6082)" fill="#777D89"/>
</svg>
