<svg width="16" height="16" viewBox="0 0 16 16" fill="none" xmlns="http://www.w3.org/2000/svg">
<path d="M8.00008 5.33341C6.52675 5.33341 5.33341 6.52675 5.33341 8.00008C5.33341 9.47341 6.52675 10.6667 8.00008 10.6667C9.47341 10.6667 10.6667 9.47341 10.6667 8.00008C10.6667 6.52675 9.47341 5.33341 8.00008 5.33341ZM13.9601 7.33341C13.6534 4.55341 11.4467 2.34675 8.66675 2.04008V0.666748H7.33341V2.04008C4.55341 2.34675 2.34675 4.55341 2.04008 7.33341H0.666748V8.66675H2.04008C2.34675 11.4467 4.55341 13.6534 7.33341 13.9601V15.3334H8.66675V13.9601C11.4467 13.6534 13.6534 11.4467 13.9601 8.66675H15.3334V7.33341H13.9601ZM8.00008 12.6667C5.42008 12.6667 3.33341 10.5801 3.33341 8.00008C3.33341 5.42008 5.42008 3.33341 8.00008 3.33341C10.5801 3.33341 12.6667 5.42008 12.6667 8.00008C12.6667 10.5801 10.5801 12.6667 8.00008 12.6667Z" fill="white"/>
</svg>
