<svg width="16" height="16" viewBox="0 0 16 16" fill="none" xmlns="http://www.w3.org/2000/svg">
<path d="M7.99984 5.33341C6.5265 5.33341 5.33317 6.52675 5.33317 8.00008C5.33317 9.47341 6.5265 10.6667 7.99984 10.6667C9.47317 10.6667 10.6665 9.47341 10.6665 8.00008C10.6665 6.52675 9.47317 5.33341 7.99984 5.33341ZM13.9598 7.33341C13.6532 4.55341 11.4465 2.34675 8.6665 2.04008V0.666748H7.33317V2.04008C4.55317 2.34675 2.3465 4.55341 2.03984 7.33341H0.666504V8.66675H2.03984C2.3465 11.4467 4.55317 13.6534 7.33317 13.9601V15.3334H8.6665V13.9601C11.4465 13.6534 13.6532 11.4467 13.9598 8.66675H15.3332V7.33341H13.9598ZM7.99984 12.6667C5.41984 12.6667 3.33317 10.5801 3.33317 8.00008C3.33317 5.42008 5.41984 3.33341 7.99984 3.33341C10.5798 3.33341 12.6665 5.42008 12.6665 8.00008C12.6665 10.5801 10.5798 12.6667 7.99984 12.6667Z" fill="#F2934E"/>
</svg>
