<svg width="16" height="16" viewBox="0 0 16 16" fill="none" xmlns="http://www.w3.org/2000/svg">
<path d="M8 5.40852C6.52667 5.40852 5.33334 6.60185 5.33334 8.07518C5.33334 9.54852 6.52667 10.7419 8 10.7419C9.47334 10.7419 10.6667 9.54852 10.6667 8.07518C10.6667 6.60185 9.47334 5.40852 8 5.40852ZM13.96 7.40852C13.6533 4.62852 11.4467 2.42185 8.66667 2.11519V0.741852H7.33334V2.11519C4.55334 2.42185 2.34667 4.62852 2.04 7.40852H0.666672V8.74185H2.04C2.34667 11.5219 4.55334 13.7285 7.33334 14.0352V15.4085H8.66667V14.0352C11.4467 13.7285 13.6533 11.5219 13.96 8.74185H15.3333V7.40852H13.96ZM8 12.7419C5.42 12.7419 3.33334 10.6552 3.33334 8.07518C3.33334 5.49518 5.42 3.40852 8 3.40852C10.58 3.40852 12.6667 5.49518 12.6667 8.07518C12.6667 10.6552 10.58 12.7419 8 12.7419Z" fill="#F8A65D"/>
</svg>
