<svg width="45" height="44" viewBox="0 0 45 44" fill="none" xmlns="http://www.w3.org/2000/svg">
<rect x="1" y="0.5" width="43" height="43" rx="21.5" stroke="#CCCFD5"/>
<path d="M32.5001 14C30.7534 14 29.3401 15.3467 29.1934 17.0667C26.6867 16.4 25.4067 14.6667 22.5001 14.6667C19.5801 14.6667 18.3134 16.4 15.8067 17.0667C15.6601 15.36 14.2467 14 12.5001 14C10.6601 14 9.16675 15.4933 9.16675 17.3333V18C9.16675 26 13.9667 28.4133 17.8601 28.64C19.2067 29.4933 20.7934 30 22.5001 30C24.2067 30 25.7934 29.4933 27.1401 28.64C31.0334 28.4133 35.8334 26 35.8334 18V17.3333C35.8334 15.4933 34.3401 14 32.5001 14ZM11.1667 18V17.3333C11.1667 16.6 11.7667 16 12.5001 16C13.2334 16 13.8334 16.6 13.8334 17.3333V21.3333C13.8334 23.04 14.3401 24.6267 15.1801 25.9733C13.1534 25.0267 11.1667 22.8667 11.1667 18ZM33.8334 18C33.8334 22.8667 31.8467 25.0267 29.8201 25.9733C30.6734 24.6267 31.1667 23.04 31.1667 21.3333V17.3333C31.1667 16.6 31.7667 16 32.5001 16C33.2334 16 33.8334 16.6 33.8334 17.3333V18ZM20.7534 19.9733C20.1667 20.32 19.4734 20.72 18.5001 20.9867V19.6C19.1401 19.3733 19.6201 19.0933 20.0734 18.8267C20.7934 18.4 21.4734 18 22.5001 18C23.5267 18 24.1934 18.4 24.9001 18.8267C25.3534 19.0933 25.8467 19.3867 26.5001 19.6133V21C25.5001 20.72 24.8201 20.32 24.2201 19.96C23.6067 19.6 23.1534 19.3333 22.5001 19.3333C21.8467 19.3333 21.3801 19.6 20.7534 19.9733Z" fill="#F2934E"/>
</svg>
