<svg width="45" height="44" viewBox="0 0 45 44" fill="none" xmlns="http://www.w3.org/2000/svg">
<rect x="1" y="0.5" width="43" height="43" rx="21.5" stroke="#CCCFD5"/>
<path fill-rule="evenodd" clip-rule="evenodd" d="M28.9512 14.9087C30.2286 15.4362 31.3113 16.3465 32.0503 17.5144C33.4606 17.8988 34.6836 18.7818 35.4922 19.9995C36.3008 21.2173 36.6401 22.687 36.4472 24.136C36.2543 25.585 35.5422 26.9147 34.4431 27.8785C33.3441 28.8423 31.9327 29.3745 30.471 29.3766H28.056C27.4335 30.2732 26.6031 31.0058 25.6359 31.5118C24.6686 32.0178 23.5933 32.282 22.5017 32.282C21.4101 32.282 20.3347 32.0178 19.3675 31.5118C18.4002 31.0058 17.5698 30.2732 16.9473 29.3766H14.5324C13.0687 29.3753 11.6554 28.8425 10.5553 27.8771C9.45515 26.9117 8.74318 25.5796 8.55183 24.1285C8.36048 22.6774 8.70278 21.2063 9.51503 19.9887C10.3273 18.7712 11.5542 17.8901 12.9675 17.5095C13.2077 16.2348 13.8095 15.0561 14.7011 14.114C15.5927 13.1718 16.7365 12.5061 17.9961 12.196C19.2556 11.886 20.5778 11.9447 21.8049 12.3653C23.0319 12.7859 24.1121 13.5506 24.9166 14.5681C26.2644 14.2621 27.6738 14.3811 28.9512 14.9087ZM27.3901 25.0883C27.6619 24.8165 27.8145 24.448 27.8145 24.0637V21.1658C27.8145 20.2691 27.4583 19.4091 26.8243 18.7751C26.1902 18.141 25.3303 17.7848 24.4336 17.7848H20.5697C19.673 17.7848 18.8131 18.141 18.179 18.7751C17.545 19.4091 17.1888 20.2691 17.1888 21.1658V24.0637C17.1888 24.448 17.3414 24.8165 17.6132 25.0883C17.8849 25.36 18.2535 25.5127 18.6378 25.5127C18.7659 25.5127 18.8887 25.5635 18.9793 25.6541C19.0699 25.7447 19.1207 25.8675 19.1207 25.9956V27.4446C19.1207 27.5727 19.1716 27.6956 19.2622 27.7861C19.3528 27.8767 19.4756 27.9276 19.6037 27.9276H20.5697V26.4786C20.5697 26.3505 20.6206 26.2277 20.7112 26.1371C20.8018 26.0465 20.9246 25.9956 21.0527 25.9956C21.1808 25.9956 21.3036 26.0465 21.3942 26.1371C21.4848 26.2277 21.5357 26.3505 21.5357 26.4786V27.9276H23.4676V26.4786C23.4676 26.3505 23.5185 26.2277 23.6091 26.1371C23.6997 26.0465 23.8225 25.9956 23.9506 25.9956C24.0787 25.9956 24.2016 26.0465 24.2922 26.1371C24.3827 26.2277 24.4336 26.3505 24.4336 26.4786V27.9276H25.3996C25.5277 27.9276 25.6505 27.8767 25.7411 27.7861C25.8317 27.6956 25.8826 27.5727 25.8826 27.4446V25.9956C25.8826 25.8675 25.9335 25.7447 26.024 25.6541C26.1146 25.5635 26.2375 25.5127 26.3656 25.5127C26.7499 25.5127 27.1184 25.36 27.3901 25.0883ZM22.0187 21.6487C22.0187 21.2645 21.866 20.8959 21.5943 20.6242C21.3226 20.3524 20.954 20.1998 20.5697 20.1998C20.1854 20.1998 19.8169 20.3524 19.5451 20.6242C19.2734 20.8959 19.1207 21.2645 19.1207 21.6487V22.6147C19.1207 22.7428 19.1716 22.8657 19.2622 22.9562C19.3528 23.0468 19.4756 23.0977 19.6037 23.0977H21.5357C21.6638 23.0977 21.7866 23.0468 21.8772 22.9562C21.9678 22.8657 22.0187 22.7428 22.0187 22.6147V21.6487ZM23.409 20.6242C23.6808 20.3524 24.0493 20.1998 24.4336 20.1998C24.8179 20.1998 25.1865 20.3524 25.4582 20.6242C25.7299 20.8959 25.8826 21.2645 25.8826 21.6487V22.6147C25.8826 22.7428 25.8317 22.8657 25.7411 22.9562C25.6505 23.0468 25.5277 23.0977 25.3996 23.0977H23.4676C23.3395 23.0977 23.2167 23.0468 23.1261 22.9562C23.0355 22.8657 22.9847 22.7428 22.9847 22.6147V21.6487C22.9847 21.2645 23.1373 20.8959 23.409 20.6242ZM22.5847 23.8634C22.6095 23.8792 22.6293 23.9018 22.6417 23.9284L23.0813 24.8075C23.0928 24.8311 23.098 24.8573 23.0966 24.8836C23.0952 24.9098 23.087 24.9353 23.073 24.9575C23.059 24.9798 23.0395 24.9981 23.0165 25.0107C22.9934 25.0233 22.9675 25.0298 22.9412 25.0297H22.0622C22.0359 25.0298 22.01 25.0233 21.9869 25.0107C21.9638 24.9981 21.9443 24.9798 21.9303 24.9575C21.9163 24.9353 21.9082 24.9098 21.9067 24.8836C21.9053 24.8573 21.9106 24.8311 21.9221 24.8075L22.3616 23.9284C22.374 23.9018 22.3938 23.8792 22.4186 23.8634C22.4435 23.8476 22.4723 23.8392 22.5017 23.8392C22.5311 23.8392 22.5599 23.8476 22.5847 23.8634Z" fill="#F8A65D"/>
</svg>
