<svg width="44" height="44" viewBox="0 0 44 44" fill="none" xmlns="http://www.w3.org/2000/svg">
<rect x="0.5" y="0.5" width="43" height="43" rx="21.5" stroke="#CCCFD5"/>
<path fill-rule="evenodd" clip-rule="evenodd" d="M22.0002 11C15.3335 11 9.64016 15.1467 7.3335 21C7.91126 22.4661 8.70151 23.8252 9.6663 25.0388L11.2002 23.5049L15.3502 27.6548C16.0646 28.3693 16.5561 29.2228 16.8246 30.1287C18.4454 30.6932 20.1868 31 22.0002 31C28.6668 31 34.3602 26.8533 36.6668 21C34.3602 15.1467 28.6668 11 22.0002 11ZM22.0002 27.6667C18.3202 27.6667 15.3335 24.68 15.3335 21C15.3335 17.32 18.3202 14.3333 22.0002 14.3333C25.6802 14.3333 28.6668 17.32 28.6668 21C28.6668 24.68 25.6802 27.6667 22.0002 27.6667ZM22.0002 17C19.7868 17 18.0002 18.7867 18.0002 21C18.0002 23.2133 19.7868 25 22.0002 25C24.2135 25 26.0002 23.2133 26.0002 21C26.0002 18.7867 24.2135 17 22.0002 17ZM11.2002 26.3333L13.9359 29.069C15.444 30.577 15.444 33.0275 13.9359 34.5356C13.1819 35.2896 12.1911 35.6666 11.2002 35.6666C10.2094 35.6666 9.21853 35.2896 8.46452 34.5356C6.95649 33.0275 6.95649 30.577 8.46452 29.069L11.2002 26.3333Z" fill="#F8A65D"/>
</svg>
