<svg width="44" height="44" viewBox="0 0 44 44" fill="none" xmlns="http://www.w3.org/2000/svg">
<rect x="0.5" y="0.5" width="43" height="43" rx="21.5" stroke="#CCCFD5"/>
<path d="M33.4267 25.8134L35.3334 23.9067L33.4267 22.0001L28.6667 26.7601L17.2401 15.3334L22.0001 10.5734L20.0934 8.66675L18.1867 10.5734L16.2801 8.66675L13.4267 11.5201L11.5201 9.61341L9.61341 11.5201L11.5201 13.4267L8.66675 16.2801L10.5734 18.1867L8.66675 20.0934L10.5734 22.0001L15.3334 17.2401L26.7601 28.6667L22.0001 33.4267L23.9067 35.3334L25.8134 33.4267L27.7201 35.3334L30.5734 32.4801L32.4801 34.3867L34.3867 32.4801L32.4801 30.5734L35.3334 27.7201L33.4267 25.8134Z" fill="#F8A65D"/>
</svg>
