<svg width="44" height="44" viewBox="0 0 44 44" fill="none" xmlns="http://www.w3.org/2000/svg">
<rect x="0.5" y="0.5" width="43" height="43" rx="21.5" stroke="#CCCFD5"/>
<path d="M27.25 20.5C28.4926 20.5 29.5 19.4926 29.5 18.25C29.5 17.0074 28.4926 16 27.25 16C26.0074 16 25 17.0074 25 18.25C25 19.4926 26.0074 20.5 27.25 20.5Z" fill="#F8A65D"/>
<path d="M16.75 20.5C17.9926 20.5 19 19.4926 19 18.25C19 17.0074 17.9926 16 16.75 16C15.5074 16 14.5 17.0074 14.5 18.25C14.5 19.4926 15.5074 20.5 16.75 20.5Z" fill="#F8A65D"/>
<path d="M27.25 20.5C28.4926 20.5 29.5 19.4926 29.5 18.25C29.5 17.0074 28.4926 16 27.25 16C26.0074 16 25 17.0074 25 18.25C25 19.4926 26.0074 20.5 27.25 20.5Z" fill="#F8A65D"/>
<path d="M16.75 20.5C17.9926 20.5 19 19.4926 19 18.25C19 17.0074 17.9926 16 16.75 16C15.5074 16 14.5 17.0074 14.5 18.25C14.5 19.4926 15.5074 20.5 16.75 20.5Z" fill="#F8A65D"/>
<path d="M21.985 7C13.705 7 7 13.72 7 22C7 30.28 13.705 37 21.985 37C30.28 37 37 30.28 37 22C37 13.72 30.28 7 21.985 7ZM22 34C15.37 34 10 28.63 10 22C10 15.37 15.37 10 22 10C28.63 10 34 15.37 34 22C34 28.63 28.63 34 22 34ZM22 30.25C25.495 30.25 28.48 28.075 29.68 25H27.175C26.14 26.785 24.22 28 22 28C19.78 28 17.875 26.785 16.825 25H14.32C15.52 28.075 18.505 30.25 22 30.25Z" fill="#F8A65D"/>
</svg>
